<svg width="64" height="64" viewBox="0 0 64 64" fill="none" xmlns="http://www.w3.org/2000/svg">
<rect x="0.5" y="0.5" width="63" height="63" rx="31.5" fill="#5D80D9"/>
<rect x="0.5" y="0.5" width="63" height="63" rx="31.5" stroke="black" stroke-dasharray="2 2"/>
<path d="M31.7557 40.2386C30.5852 40.2386 29.5398 40.0369 28.6193 39.6335C27.7045 39.2301 26.9801 38.6705 26.446 37.9545C25.9176 37.233 25.6335 36.3977 25.5938 35.4489H28.2699C28.304 35.9659 28.4773 36.4148 28.7898 36.7955C29.108 37.1705 29.5227 37.4602 30.0341 37.6648C30.5455 37.8693 31.1136 37.9716 31.7386 37.9716C32.4261 37.9716 33.0341 37.8523 33.5625 37.6136C34.0966 37.375 34.5142 37.0426 34.8153 36.6165C35.1165 36.1847 35.267 35.6875 35.267 35.125C35.267 34.5398 35.1165 34.0256 34.8153 33.5824C34.5199 33.1335 34.0852 32.7812 33.5114 32.5256C32.9432 32.2699 32.2557 32.142 31.4489 32.142H29.9744V29.9943H31.4489C32.0966 29.9943 32.6648 29.8778 33.1534 29.6449C33.6477 29.4119 34.0341 29.0881 34.3125 28.6733C34.5909 28.2528 34.7301 27.7614 34.7301 27.1989C34.7301 26.6591 34.608 26.1903 34.3636 25.7926C34.125 25.3892 33.7841 25.0739 33.3409 24.8466C32.9034 24.6193 32.3864 24.5057 31.7898 24.5057C31.2216 24.5057 30.6903 24.6108 30.196 24.821C29.7074 25.0256 29.3097 25.321 29.0028 25.7074C28.696 26.0881 28.5313 26.5455 28.5085 27.0795H25.9602C25.9886 26.1364 26.267 25.3068 26.7955 24.5909C27.3295 23.875 28.0341 23.3153 28.9091 22.9119C29.7841 22.5085 30.7557 22.3068 31.8239 22.3068C32.9432 22.3068 33.9091 22.5256 34.7216 22.9631C35.5398 23.3949 36.1705 23.9716 36.6136 24.6932C37.0625 25.4148 37.2841 26.2045 37.2784 27.0625C37.2841 28.0398 37.0114 28.8693 36.4602 29.5511C35.9148 30.233 35.1875 30.6903 34.2784 30.9233V31.0597C35.4375 31.2358 36.3352 31.696 36.9716 32.4403C37.6136 33.1847 37.9318 34.108 37.9261 35.2102C37.9318 36.1705 37.6648 37.0312 37.125 37.7926C36.5909 38.554 35.8608 39.1534 34.9347 39.5909C34.0085 40.0227 32.9489 40.2386 31.7557 40.2386Z" fill="white"/>
</svg>
