<svg width="64" height="64" viewBox="0 0 64 64" fill="none" xmlns="http://www.w3.org/2000/svg">
<rect x="0.5" y="0.5" width="63" height="63" rx="31.5" fill="#5D80D9"/>
<rect x="0.5" y="0.5" width="63" height="63" rx="31.5" stroke="black" stroke-dasharray="2 2"/>
<path d="M26.679 40V38.0909L32.5852 31.9716C33.2159 31.3068 33.7358 30.7244 34.1449 30.2244C34.5597 29.7187 34.8693 29.2386 35.0739 28.7841C35.2784 28.3295 35.3807 27.8466 35.3807 27.3352C35.3807 26.7557 35.2443 26.2557 34.9716 25.8352C34.6989 25.4091 34.3267 25.0824 33.8551 24.8551C33.3835 24.6222 32.8523 24.5057 32.2614 24.5057C31.6364 24.5057 31.0909 24.6335 30.625 24.8892C30.1591 25.1449 29.8011 25.5057 29.5511 25.9716C29.3011 26.4375 29.1761 26.983 29.1761 27.608H26.6619C26.6619 26.5455 26.9063 25.6165 27.3949 24.821C27.8835 24.0256 28.554 23.4091 29.4062 22.9716C30.2585 22.5284 31.2273 22.3068 32.3125 22.3068C33.4091 22.3068 34.375 22.5256 35.2102 22.9631C36.0511 23.3949 36.7074 23.9858 37.179 24.7358C37.6506 25.4801 37.8864 26.321 37.8864 27.2585C37.8864 27.9062 37.7642 28.5398 37.5199 29.1591C37.2813 29.7784 36.8636 30.4687 36.267 31.2301C35.6705 31.9858 34.8409 32.9034 33.7784 33.983L30.3097 37.6136V37.7415H38.1676V40H26.679Z" fill="white"/>
</svg>
